# xmcd
#
# Track frame offsets:
#	150
#	21368
#	43070
#	63844
#	79357
#	100353
#	116378
#	137126
#	159101
#	181475
#
# Disc length: 2697 seconds
#
# Revision: 1
# Processed by: cddbd v1.5.2PL0 Copyright (c) Steve Scherf et al.
# Submitted via: EZCDAudioConverter 2.5.0.1
#
DISCID=800a870a
DTITLE=Lệ Quyên - Lời Yêu Còn Mãi
DYEAR=2006
DGENRE=Vietnamese
TTITLE0=Xua Tan Niem Dau
TTITLE1=Quay Ve Voi Em 
TTITLE2=Chỉ Muon Yeu Em
TTITLE3=Tinh Theo Ngon Gio 
TTITLE4=Quay Lai Tu Dau 
TTITLE5=Them Mot Lan Nua
TTITLE6=Mot Nguoi Em Yeu 
TTITLE7=Cho Buoc Anh Quay Ve 
TTITLE8=Ngay Mai Ben Nhau
TTITLE9=Sao Anh Khong Ve Ben Em 
EXTD=
EXTT0=
EXTT1=
EXTT2=
EXTT3=
EXTT4=
EXTT5=
EXTT6=
EXTT7=
EXTT8=
EXTT9=
PLAYORDER=
